<?xml version="1.0" encoding="utf-8"?>
<!-- Generator: Adobe Illustrator 19.0.1, SVG Export Plug-In . SVG Version: 6.00 Build 0)  -->
<svg version="1.1" id="Capa_1" xmlns="http://www.w3.org/2000/svg" xmlns:xlink="http://www.w3.org/1999/xlink" x="0px" y="0px"
	 viewBox="0 0 100 100" style="enable-background:new 0 0 100 100;" xml:space="preserve">
<style type="text/css">
	.st0{fill:#5D5D5D;}
	.st1{fill:#FFFFFF;}
</style>
<g>
	<path class="st0" d="M78.5,100h-57C9.6,100,0,90.4,0,78.5v-57C0,9.6,9.6,0,21.5,0h57C90.4,0,100,9.6,100,21.5v57
		C100,90.4,90.4,100,78.5,100z"/>
</g>
<g>
	<path class="st1" d="M21.4,33.7h3.4v23.5H36v2.9H21.4V33.7z"/>
	<path class="st1" d="M43.5,35.8c0,1.2-0.8,2.1-2.2,2.1c-1.2,0-2.1-0.9-2.1-2.1c0-1.2,0.9-2.2,2.2-2.2
		C42.7,33.7,43.5,34.6,43.5,35.8z M39.7,60.1V41.1h3.4v18.9H39.7z"/>
	<path class="st1" d="M50.2,41.1l3.7,10.6c0.6,1.7,1.1,3.3,1.5,4.8h0.1c0.4-1.6,1-3.1,1.6-4.8l3.7-10.6h3.6L57,60.1h-3.3l-7.2-18.9
		H50.2z"/>
	<path class="st1" d="M69.2,51.2c0.1,4.7,3,6.6,6.5,6.6c2.5,0,3.9-0.4,5.2-1l0.6,2.5c-1.2,0.5-3.3,1.2-6.3,1.2
		c-5.8,0-9.3-3.8-9.3-9.5c0-5.7,3.4-10.2,8.9-10.2c6.2,0,7.8,5.4,7.8,8.9c0,0.7-0.1,1.3-0.1,1.6H69.2z M79.3,48.8
		c0-2.2-0.9-5.6-4.8-5.6c-3.5,0-5,3.2-5.3,5.6H79.3z"/>
</g>
</svg>
