<?xml version="1.0" encoding="utf-8"?>
<!-- Generator: Adobe Illustrator 19.0.1, SVG Export Plug-In . SVG Version: 6.00 Build 0)  -->
<svg version="1.1" id="Capa_1" xmlns="http://www.w3.org/2000/svg" xmlns:xlink="http://www.w3.org/1999/xlink" x="0px" y="0px"
	 viewBox="0 0 100 100" style="enable-background:new 0 0 100 100;" xml:space="preserve">
<style type="text/css">
	.st0{fill:#FF4215;}
	.st1{fill:#FFFFFF;}
</style>
<g>
	<path class="st0" d="M78.5,100h-57C9.6,100,0,90.4,0,78.5v-57C0,9.6,9.6,0,21.5,0h57C90.4,0,100,9.6,100,21.5v57
		C100,90.4,90.4,100,78.5,100z"/>
</g>
<g>
	<path class="st1" d="M29.5,34.8c0,0-1.4-7.6,10.7-12.5c9.5-1.8,14.1,6.3,14.1,6.3s0.3,1.9,1.4-0.9s7-10.9,9.5-12.9s2.7-1.2,2.8-0.9
		S59,21.3,57.4,29.1c0.1,1.7,0.8,1.8,1.5,1.4s9.1-1.6,14.1,6s0,14.2,0,14.2s-0.8,0.6-3-1.9s-6.8-7.6-7.1-7.6s-0.6,0.3-0.8,0.9
		s-3.4,6.8-9.8,7.6c-5.3,0.4-7.6-4.7-7.9-6.5s-0.6-4.3,0.1-9.1c0-1-0.7-1.1-1.1-1s-3.2,0-11.8,1.8C29.7,35.5,29.5,34.8,29.5,34.8z"
		/>
	<path class="st1" d="M35.6,35.9l6.5-1c0,0-1.2,12.3,6.5,16.1c7.8,2.6,14.7-7.3,14.7-7.3l4.4,4.6c0.3,0.3,0.4,0.7,0.3,1.1
		c-1,10.2-15.8,38.8-29,39.1C24.5,87.8,27.2,49.5,35.6,35.9z"/>
</g>
</svg>
