<?xml version="1.0" encoding="utf-8"?>
<!-- Generator: Adobe Illustrator 19.0.1, SVG Export Plug-In . SVG Version: 6.00 Build 0)  -->
<svg version="1.1" id="Capa_1" xmlns="http://www.w3.org/2000/svg" xmlns:xlink="http://www.w3.org/1999/xlink" x="0px" y="0px"
	 viewBox="0 0 100 100" style="enable-background:new 0 0 100 100;" xml:space="preserve">
<style type="text/css">
	.st0{fill:#D37C2A;}
	.st1{fill:#FFFFFF;}
</style>
<g>
	<path class="st0" d="M78.5,100.2h-57C9.6,100.2,0,90.6,0,78.7v-57C0,9.8,9.6,0.2,21.5,0.2h57c11.9,0,21.5,9.6,21.5,21.5v57
		C100,90.6,90.4,100.2,78.5,100.2z"/>
</g>
<g>
	<path class="st1" d="M37.3,64.8c2.9,1.8,7.1,3.3,11.6,3.3c6.6,0,10.5-3.5,10.5-8.5c0-4.7-2.7-7.4-9.4-10
		c-8.2-2.9-13.2-7.1-13.2-14.2c0-7.8,6.5-13.6,16.2-13.6c5.1,0,8.8,1.2,11.1,2.5l-1.8,5.3c-1.6-0.9-5-2.4-9.5-2.4
		c-6.8,0-9.4,4.1-9.4,7.5c0,4.7,3,7,10,9.7C61.7,47.5,66,51.6,66,59c0,7.7-5.7,14.4-17.5,14.4c-4.8,0-10.1-1.4-12.8-3.2L37.3,64.8z"
		/>
</g>
</svg>
